<svg width="4655" height="829" viewBox="0 0 4655 829" fill="none" xmlns="http://www.w3.org/2000/svg">
<g clip-path="url(#clip0_50_267)">
<g clip-path="url(#clip1_50_267)">
<path d="M655.75 1H173.59C77.995 1 0.5 78.495 0.5 174.09V656.25C0.5 751.845 77.995 829.34 173.59 829.34H655.75C751.345 829.34 828.84 751.845 828.84 656.25V174.09C828.84 78.495 751.345 1 655.75 1Z" fill="#121018"/>
<path d="M414.85 157.34L121.34 673.76H708.35L414.85 157.34Z" fill="url(#paint0_linear_50_267)"/>
<path d="M623.7 109.89L642.75 162.55C650.89 185.06 668.46 202.88 690.84 211.35L741.72 230.61L690.84 249.87C668.46 258.34 650.89 276.17 642.75 298.67L623.7 351.33L604.65 298.67C596.51 276.16 578.94 258.34 556.56 249.87L505.68 230.61L556.56 211.35C578.94 202.88 596.51 185.05 604.65 162.55L623.7 109.89Z" fill="#F8F5E6"/>
</g>
<path d="M978.82 677.93L1180.67 148.73H1258.54L1459.64 677.93H1389.33L1333.39 535.05H1102.81L1046.87 677.93H978.83H978.82ZM1122.46 475.32H1313.73L1217.72 220.55L1122.46 475.32Z" fill="#121018"/>
<path d="M1800.21 311.27C1828.18 326.9 1850.11 349.58 1865.98 379.31C1881.86 409.05 1889.79 444.33 1889.79 485.15C1889.79 525.97 1881.85 558.23 1865.98 587.97C1850.1 617.71 1828.05 640.89 1799.83 657.52C1771.6 674.15 1739.85 682.47 1704.57 682.47C1673.31 682.47 1646.61 676.8 1624.43 665.46C1602.25 654.12 1584.86 638.62 1572.27 618.97L1563.95 677.94H1510.27V148.73H1572.26V354.36C1604.51 310.02 1648.62 287.83 1704.56 287.83C1740.34 287.83 1772.22 295.65 1800.19 311.27H1800.21ZM1791.14 587.59C1814.58 561.13 1826.29 526.99 1826.29 485.15C1826.29 443.31 1814.57 409.17 1791.14 382.71C1767.71 356.25 1736.83 343.02 1698.53 343.02C1673.83 343.02 1651.78 348.95 1632.38 360.79C1612.97 372.64 1597.98 389.27 1587.4 410.69C1576.82 432.12 1571.52 456.43 1571.52 483.64C1571.52 510.85 1576.81 536.18 1587.4 558.11C1597.98 580.03 1612.97 597.04 1632.38 609.14C1651.78 621.24 1673.83 627.28 1698.53 627.28C1736.83 627.28 1767.7 614.05 1791.14 587.59Z" fill="#121018"/>
<path d="M2007.73 550.92C2008.73 574.11 2018.94 593.01 2038.35 607.62C2057.75 622.24 2082.82 629.54 2113.57 629.54C2140.79 629.54 2162.83 624.13 2179.72 613.29C2196.6 602.46 2205.05 588.22 2205.05 570.58C2205.05 555.46 2201.01 543.87 2192.95 535.8C2184.88 527.74 2174.43 522.19 2161.58 519.17C2148.73 516.15 2130.45 513.12 2106.77 510.1C2073.51 506.07 2046.29 500.78 2025.12 494.22C2003.95 487.68 1986.81 477.21 1973.71 462.85C1960.6 448.49 1954.05 428.71 1954.05 403.5C1954.05 380.82 1960.48 360.67 1973.33 343.02C1986.18 325.38 2003.69 311.65 2025.87 301.82C2048.04 291.99 2072.99 287.08 2100.71 287.08C2146.07 287.08 2182.98 297.66 2211.46 318.83C2239.93 340 2255.69 370.24 2258.71 409.55H2196.72C2194.19 389.4 2184.36 372.77 2167.24 359.65C2150.1 346.55 2128.68 339.99 2102.98 339.99C2077.28 339.99 2055.6 345.41 2039.48 356.24C2023.34 367.08 2015.29 381.32 2015.29 398.95C2015.29 412.06 2019.07 422.14 2026.63 429.19C2034.19 436.25 2043.89 441.04 2055.74 443.55C2067.58 446.08 2085.6 448.84 2109.79 451.87C2143.55 455.91 2171.4 461.45 2193.33 468.5C2215.25 475.56 2232.89 486.9 2246.25 502.52C2259.6 518.15 2266.28 539.32 2266.28 566.02C2266.28 589.21 2259.48 609.62 2245.87 627.26C2232.26 644.91 2213.86 658.52 2190.68 668.08C2167.49 677.66 2141.79 682.44 2113.57 682.44C2063.17 682.44 2022.72 670.85 1992.23 647.66C1961.73 624.48 1946.23 592.22 1945.74 550.89H2007.73V550.92Z" fill="#121018"/>
<path d="M2414.83 657.52C2385.84 640.89 2363.29 617.71 2347.17 587.97C2331.03 558.24 2322.98 523.97 2322.98 485.15C2322.98 446.33 2331.04 412.08 2347.17 382.33C2363.29 352.6 2385.84 329.41 2414.83 312.78C2443.81 296.15 2476.94 287.83 2514.24 287.83C2551.54 287.83 2584.67 296.15 2613.65 312.78C2642.63 329.41 2665.18 352.6 2681.31 382.33C2697.43 412.07 2705.5 446.34 2705.5 485.15C2705.5 523.96 2697.43 558.23 2681.31 587.97C2665.17 617.71 2642.62 640.89 2613.65 657.52C2584.66 674.15 2551.53 682.47 2514.24 682.47C2476.95 682.47 2443.8 674.15 2414.83 657.52ZM2581.15 609.13C2600.55 597.03 2615.55 580.15 2626.13 558.48C2636.71 536.82 2642.01 512.36 2642.01 485.15C2642.01 457.94 2636.72 433.49 2626.13 411.82C2615.55 390.16 2600.54 373.26 2581.15 361.17C2561.74 349.07 2539.44 343.03 2514.24 343.03C2489.04 343.03 2466.73 349.08 2447.33 361.17C2427.92 373.27 2412.93 390.16 2402.35 411.82C2391.77 433.5 2386.47 457.94 2386.47 485.15C2386.47 512.36 2391.76 536.82 2402.35 558.48C2412.93 580.16 2427.92 597.04 2447.33 609.13C2466.73 621.23 2489.03 627.27 2514.24 627.27C2539.45 627.27 2561.74 621.22 2581.15 609.13Z" fill="#121018"/>
<path d="M2776.56 148.73H2838.55V677.93H2776.56V148.73Z" fill="#121018"/>
<path d="M3255.1 292.37V677.93H3201.42L3193.1 626.52C3163.86 663.82 3122.79 682.46 3069.87 682.46C3024 682.46 2987.21 668.36 2959.49 640.12C2931.77 611.9 2917.91 567.54 2917.91 507.06V292.36H2979.9V503.28C2979.9 543.1 2988.59 573.47 3005.98 594.38C3023.37 615.3 3048.19 625.75 3080.45 625.75C3115.72 625.75 3143.32 613.16 3163.23 587.95C3183.13 562.75 3193.09 528.49 3193.09 485.13V292.35H3255.08L3255.1 292.37Z" fill="#121018"/>
<path d="M3366.98 349.07H3297.43V292.37H3366.98V184.26H3428.97V292.37H3526.49V349.07H3428.97V576.63C3428.97 592.77 3432.11 604.22 3438.42 611.03C3444.72 617.83 3455.68 621.24 3471.31 621.24H3538.59V677.94H3467.53C3431.24 677.94 3405.41 669.88 3390.04 653.75C3374.66 637.63 3366.98 612.17 3366.98 577.39V349.08V349.07Z" fill="#121018"/>
<path d="M3650.86 657.52C3621.87 640.89 3599.32 617.71 3583.2 587.97C3567.06 558.24 3559.01 523.97 3559.01 485.15C3559.01 446.33 3567.07 412.08 3583.2 382.33C3599.32 352.6 3621.87 329.41 3650.86 312.78C3679.84 296.15 3712.97 287.83 3750.27 287.83C3787.57 287.83 3820.7 296.15 3849.68 312.78C3878.66 329.41 3901.21 352.6 3917.34 382.33C3933.46 412.07 3941.53 446.34 3941.53 485.15C3941.53 523.96 3933.46 558.23 3917.34 587.97C3901.2 617.71 3878.65 640.89 3849.68 657.52C3820.69 674.15 3787.56 682.47 3750.27 682.47C3712.98 682.47 3679.83 674.15 3650.86 657.52ZM3817.18 609.13C3836.58 597.03 3851.58 580.15 3862.16 558.48C3872.74 536.82 3878.04 512.36 3878.04 485.15C3878.04 457.94 3872.75 433.49 3862.16 411.82C3851.58 390.16 3836.57 373.26 3817.18 361.17C3797.77 349.07 3775.47 343.03 3750.27 343.03C3725.07 343.03 3702.76 349.08 3683.36 361.17C3663.95 373.27 3648.96 390.16 3638.38 411.82C3627.8 433.5 3622.5 457.94 3622.5 485.15C3622.5 512.36 3627.79 536.82 3638.38 558.48C3648.96 580.16 3663.95 597.04 3683.36 609.13C3702.76 621.23 3725.06 627.27 3750.27 627.27C3775.48 627.27 3797.77 621.22 3817.18 609.13Z" fill="#121018"/>
<path d="M4024.17 609.51C4032.23 601.7 4042.56 597.79 4055.17 597.79C4067.78 597.79 4078.1 601.7 4086.17 609.51C4094.23 617.33 4098.27 627.54 4098.27 640.13C4098.27 652.72 4094.23 662.94 4086.17 670.75C4078.1 678.56 4067.77 682.47 4055.17 682.47C4042.57 682.47 4032.23 678.56 4024.17 670.75C4016.1 662.94 4012.07 652.74 4012.07 640.13C4012.07 627.52 4016.1 617.33 4024.17 609.51Z" fill="url(#paint1_linear_50_267)"/>
<path d="M4535.97 621.23V677.93H4501.95C4477.25 677.93 4459.61 672.9 4449.03 662.81C4438.45 652.73 4432.89 637.86 4432.4 618.21C4402.66 661.05 4359.56 682.47 4303.12 682.47C4260.28 682.47 4225.88 672.39 4199.93 652.23C4173.97 632.08 4161 604.6 4161 569.83C4161 531.03 4174.23 501.29 4200.69 480.62C4227.15 459.96 4265.58 449.62 4315.98 449.62H4429.38V423.16C4429.38 397.96 4420.93 378.31 4404.05 364.19C4387.16 350.09 4363.6 343.02 4333.36 343.02C4306.64 343.02 4284.6 348.95 4267.21 360.79C4249.82 372.64 4239.11 388.38 4235.08 408.04H4173.09C4177.63 370.24 4194.38 340.76 4223.36 319.59C4252.34 298.42 4290.01 287.84 4336.38 287.84C4385.77 287.84 4423.95 299.82 4450.92 323.75C4477.88 347.69 4491.37 382.09 4491.37 426.94V593.26C4491.37 611.91 4499.93 621.23 4517.07 621.23H4535.97ZM4429.38 501.78H4309.93C4252.47 501.78 4223.75 523.21 4223.75 566.04C4223.75 585.2 4231.31 600.57 4246.43 612.16C4261.55 623.76 4281.96 629.55 4307.67 629.55C4345.47 629.55 4375.2 619.6 4396.88 599.69C4418.54 579.79 4429.39 553.46 4429.39 520.69V501.79L4429.38 501.78Z" fill="url(#paint2_linear_50_267)"/>
<path d="M4643.32 154.78C4650.88 162.34 4654.66 171.92 4654.66 183.51C4654.66 195.1 4650.88 204.68 4643.32 212.24C4635.76 219.8 4626.18 223.58 4614.59 223.58C4603 223.58 4593.42 219.8 4585.86 212.24C4578.3 204.68 4574.52 195.11 4574.52 183.51C4574.52 171.91 4578.3 162.34 4585.86 154.78C4593.42 147.22 4602.99 143.44 4614.59 143.44C4626.19 143.44 4635.76 147.22 4643.32 154.78ZM4583.6 292.37H4645.59V677.93H4583.6V292.37Z" fill="url(#paint3_linear_50_267)"/>
</g>
<defs>
<linearGradient id="paint0_linear_50_267" x1="213.79" y1="364.01" x2="613.6" y2="743.49" gradientUnits="userSpaceOnUse">
<stop stop-color="#EF7843"/>
<stop offset="0.25" stop-color="#EB5949"/>
<stop offset="0.5" stop-color="#E83972"/>
<stop offset="0.75" stop-color="#883F90"/>
<stop offset="1" stop-color="#654193"/>
</linearGradient>
<linearGradient id="paint1_linear_50_267" x1="3946.49" y1="595.23" x2="4766.44" y2="934.05" gradientUnits="userSpaceOnUse">
<stop stop-color="#EF7843"/>
<stop offset="0.25" stop-color="#EB5949"/>
<stop offset="0.5" stop-color="#E83972"/>
<stop offset="0.75" stop-color="#883F90"/>
<stop offset="1" stop-color="#654193"/>
</linearGradient>
<linearGradient id="paint2_linear_50_267" x1="4040.04" y1="368.82" x2="4860" y2="707.65" gradientUnits="userSpaceOnUse">
<stop stop-color="#EF7843"/>
<stop offset="0.25" stop-color="#EB5949"/>
<stop offset="0.5" stop-color="#E83972"/>
<stop offset="0.75" stop-color="#883F90"/>
<stop offset="1" stop-color="#654193"/>
</linearGradient>
<linearGradient id="paint3_linear_50_267" x1="4107.46" y1="205.67" x2="4927.42" y2="544.491" gradientUnits="userSpaceOnUse">
<stop stop-color="#EF7843"/>
<stop offset="0.25" stop-color="#EB5949"/>
<stop offset="0.5" stop-color="#E83972"/>
<stop offset="0.75" stop-color="#883F90"/>
<stop offset="1" stop-color="#654193"/>
</linearGradient>
<clipPath id="clip0_50_267">
<rect width="4654.66" height="828.34" fill="white"/>
</clipPath>
<clipPath id="clip1_50_267">
<rect width="828.34" height="828.34" fill="white" transform="translate(0.5 1)"/>
</clipPath>
</defs>
</svg>
